Coordinates
version=1
nRows=19
nColumns=36
inDegrees=yes

Units are S.I. units (second, meters, Newtons, ...)
If the header above contains a line with 'inDegrees', this indicates whether rotational values are in degrees (yes) or radians (no).

endheader
time	pelvis_tilt	pelvis_list	pelvis_rotation	pelvis_tx	pelvis_ty	pelvis_tz	hip_flexion_r	hip_adduction_r	hip_rotation_r	knee_angle_r	knee_angle_r_beta	ankle_angle_r	subtalar_angle_r	mtp_angle_r	hip_flexion_l	hip_adduction_l	hip_rotation_l	knee_angle_l	knee_angle_l_beta	ankle_angle_l	subtalar_angle_l	mtp_angle_l	lumbar_extension	lumbar_bending	lumbar_rotation	arm_flex_r	arm_add_r	arm_rot_r	elbow_flex_r	pro_sup_r	arm_flex_l	arm_add_l	arm_rot_l	elbow_flex_l	pro_sup_l
      2.16666670	     -4.21704006	      1.86722158	     -1.67270990	      0.01037716	      1.29859132	      0.05466167	      3.62858350	     -0.10942668	      4.62805057	      0.42922652	      0.00749142	      7.71614312	     -3.48657694	     -7.49999987	      3.78879056	      1.84960474	     -3.86996933	      0.38575392	      0.00673268	      5.01352233	     -0.61238262	     -7.49999987	     -0.41361824	     -1.43553756	     -1.06489497	     -1.59217491	     -6.68603265	     11.16740506	     31.63103552	     79.28703765	     -0.66607750	     -7.64483063	     14.46338905	     28.66397439	     85.47995280
      2.18333330	     -4.24086128	      1.84800899	     -1.63710278	      0.01123790	      1.29938527	      0.05441343	      3.62412012	     -0.08992341	      4.59507491	      0.46422399	      0.00810224	      7.71041399	     -3.59392972	     -7.49999987	      3.82360118	      1.82075014	     -3.88093064	      0.39858091	      0.00695655	      5.17098037	     -0.38778880	     -7.49999987	     -0.34621307	     -1.42728607	     -1.10884785	     -1.53279842	     -6.66907005	     11.16295439	     31.36014930	     78.85557704	     -0.62817992	     -7.57515950	     14.47014410	     28.35269510	     84.92052336
      2.20000000	     -4.28375941	      1.85277529	     -1.62883733	      0.00939948	      1.30530960	      0.05374420	      3.69599463	     -0.10366959	      4.50528541	      0.48466724	      0.00845904	      7.70324513	     -3.63844538	     -7.49999987	      3.90907137	      1.83589475	     -3.78343372	      0.38941259	      0.00679653	      5.11657817	     -0.43447010	     -7.49999987	     -0.38390173	     -1.45231559	     -1.14966850	     -1.62257512	     -6.76165556	     11.18239103	     31.70097606	     78.59470499	     -0.74197733	     -7.63523036	     14.54272881	     28.69534795	     84.56032704
      2.21666670	     -4.24319219	      1.84793023	     -1.67652971	      0.00937183	      1.30392263	      0.05460583	      3.65777064	     -0.08737977	      4.66551609	      0.48518181	      0.00846802	      7.68331144	     -3.70755060	     -7.49999987	      3.85238891	      1.82480124	     -3.92899561	      0.40350133	      0.00704243	      5.17021510	     -0.34936289	     -7.49999987	     -0.49407204	     -1.46467410	     -1.13471858	     -1.60850872	     -6.75090590	     11.20569375	     31.71554995	     78.47070015	     -0.72869859	     -7.68047663	     14.60873293	     28.71385011	     84.38844218
      2.23333330	     -4.29988144	      1.84199928	     -1.63288805	      0.00956946	      1.30319702	      0.05376974	      3.74388278	     -0.10616059	      4.37735609	      0.50495593	      0.00881314	      7.80455161	     -3.33909661	     -7.49999987	      3.91215309	      1.84141932	     -3.93421217	      0.40343870	      0.00704133	      5.18502311	     -0.46679817	     -7.49999987	     -0.45878942	     -1.42588880	     -1.18465442	     -1.70367115	     -6.80647861	     11.14818617	     31.83624972	     77.97237486	     -0.80199438	     -7.67186274	     14.61212957	     28.83456660	     83.72560717
      2.25000000	     -4.45604950	      1.86233187	     -1.66059683	      0.00818345	      1.30086462	      0.05300298	      3.96165962	     -0.13483619	      4.55800969	      0.52784505	      0.00921263	      7.64008240	     -3.76682183	     -7.49999987	      4.12147858	      1.87566176	     -3.77507394	      0.40663350	      0.00709709	      5.13625945	     -0.77685433	     -7.49999987	     -0.31628908	     -1.44939677	     -1.07910426	     -1.88817762	     -6.67788143	      9.54896006	     31.95772847	     84.63074980	     -0.81143285	     -7.52767518	     12.99574990	     28.81120605	     92.31007819
      2.26666670	     -4.43359752	      1.89996332	     -1.61235982	      0.00748355	      1.30247167	      0.05325326	      4.00673243	     -0.19622778	      4.31800080	      0.56096843	      0.00979075	      7.83778221	     -3.43163963	     -7.49999987	      4.14525372	      1.93439415	     -3.72309689	      0.39555558	      0.00690375	      5.07484789	     -0.85590904	     -7.49999987	     -0.53203599	     -1.49213267	     -1.18842694	     -1.90879724	     -6.70416230	      9.55753968	     32.30687004	     82.87099246	     -0.90988751	     -7.58463027	     12.92888517	     29.23660412	     89.97001295
      2.28333330	     -4.49539987	      1.92368588	     -1.57089022	      0.00722529	      1.30109674	      0.05338226	      4.12438379	     -0.23015468	      4.38948340	      0.57557149	      0.01004562	      7.73685960	     -3.71712442	     -7.49999987	      4.24936438	      1.96649215	     -3.82647596	      0.40901940	      0.00713874	      5.27272902	     -0.55259594	     -7.49999987	     -0.53352944	     -1.53694602	     -1.21738788	     -1.89587132	     -6.73356716	      9.70406775	     32.31288473	     81.70860672	     -0.92085937	     -7.63656937	     13.04421986	     29.33964129	     88.35835303
      2.30000000	     -4.56178955	      1.94001166	     -1.54105205	      0.00739102	      1.30273285	      0.05265053	      4.24445008	     -0.25998258	      4.35334122	      0.60675112	      0.01058980	      7.61284357	     -3.91773755	     -7.49999987	      4.35466133	      1.99675592	     -3.74070911	      0.40446321	      0.00705921	      5.02116661	     -0.98236930	     -7.49999987	     -0.53325539	     -1.53854066	     -1.27820682	     -1.83119969	     -6.74920188	      9.85800341	     32.22022609	     81.24046032	     -0.86362288	     -7.69508546	     13.20178596	     29.24979069	     87.70720394
      2.31666670	     -4.54902998	      1.93115590	     -1.49569405	      0.00742923	      1.30158635	      0.05243553	      4.26348792	     -0.25817246	      4.19965219	      0.63388255	      0.01106334	      7.68764076	     -3.77642079	     -7.49999987	      4.37492839	      2.01126888	     -3.67984796	      0.40725850	      0.00710800	      4.98198629	     -1.06982554	     -7.49999987	     -0.64701691	     -1.53600254	     -1.33061955	     -1.82382664	     -6.79099092	      9.92446425	     32.28515581	     80.63919859	     -0.85885540	     -7.74853191	     13.27843986	     29.32236603	     86.87900308
      2.33333330	     -4.64865840	      1.92520960	     -1.43086261	      0.00947811	      1.30129003	      0.05110759	      4.33585527	     -0.28019077	      4.37186557	      0.65132458	      0.01136776	      7.65158254	     -3.97488578	     -7.49999987	      4.47361861	      2.03127450	     -3.64081868	      0.41563186	      0.00725414	      4.89512564	     -1.20592400	     -7.49999987	     -0.51686311	     -1.48948500	     -1.23818667	     -2.07436067	     -6.75505894	      8.79701655	     32.41179506	     84.98409623	     -0.91300080	     -7.65466066	     12.10108014	     29.35061193	     92.57598784
      2.35000000	     -4.66401114	      1.90724478	     -1.38975355	      0.00749205	      1.30515040	      0.05094377	      4.34934764	     -0.29333673	      4.33066595	      0.65912764	      0.01150395	      7.56700458	     -3.93868679	     -7.49999987	      4.49936101	      2.04759813	     -3.54819321	      0.41134228	      0.00717928	      4.81762358	     -1.08297608	     -7.49999987	     -0.54374034	     -1.42778391	     -1.22427073	     -2.09260172	     -6.87068885	      8.94800113	     32.46427500	     84.16144773	     -0.93226854	     -7.65798956	     12.04626734	     29.44400781	     91.47267587
      2.36666670	     -4.57931619	      1.88448634	     -1.33327523	      0.00690152	      1.30699991	      0.05115025	      4.24411787	     -0.29840680	      4.11779205	      0.64674818	      0.01128789	      7.54254737	     -3.64908293	     -7.49999987	      4.42032364	      2.05654372	     -3.46648509	      0.40907957	      0.00713979	      4.65226967	     -0.99037849	     -7.49999987	     -0.69722512	     -1.37039932	     -1.23776805	     -2.11226907	     -6.89609056	      8.93711777	     32.53975164	     82.38429495	     -0.96847157	     -7.66839519	     11.97661379	     29.56527805	     89.14246612
      2.38333330	     -4.50124845	      1.85135561	     -1.39575506	      0.00841229	      1.30038852	      0.04952894	      4.16077745	     -0.29614456	      4.15704292	      0.65379430	      0.01141086	      7.52843151	     -3.72261660	     -7.49999987	      4.32611504	      2.06807597	     -3.60691105	      0.40559623	      0.00707899	      4.82942462	     -0.63899666	     -7.49999987	     -0.85236006	     -1.30235461	     -1.15293286	     -2.14301241	     -6.98190992	      9.04756443	     32.55336653	     80.92241018	     -0.96900932	     -7.64608212	     12.05419224	     29.65918937	     87.27687045
      2.40000000	     -4.60376083	      1.83808101	     -1.41855972	      0.00809862	      1.29629357	      0.05099093	      4.28867159	     -0.27019090	      4.31862970	      0.68350001	      0.01192933	      7.49447038	     -4.24174954	     -7.49999987	      4.41369958	      2.06927478	     -3.52676738	      0.41366113	      0.00721975	      4.94044166	     -0.86079750	     -7.49999987	     -0.69175368	     -1.28446493	     -1.09007775	     -2.23757357	     -6.99387053	      8.41643800	     32.47601869	     85.11176671	     -0.95211941	     -7.65480266	     11.35072282	     29.50856067	     92.61868207
      2.41666670	     -4.60172204	      1.84743951	     -1.38748293	      0.00747263	      1.30172527	      0.05163500	      4.30087348	     -0.28838486	      4.26345275	      0.70513240	      0.01230688	      7.63548097	     -4.10584019	     -7.49999987	      4.39533125	      2.07000788	     -3.39517702	      0.41531770	      0.00724866	      4.86461653	     -1.08112077	     -7.49999987	     -0.67141882	     -1.29662533	     -1.10238864	     -2.32439616	     -6.98412271	      8.38685014	     32.49104049	     83.70213846	     -1.01918297	     -7.71568199	     11.21561043	     29.58820875	     90.60535382
      2.43333330	     -4.68106905	      1.87137626	     -1.39314728	      0.00612350	      1.30251771	      0.05096452	      4.40698967	     -0.32755691	      4.40453962	      0.73107287	      0.01275963	      7.62145966	     -4.23746078	     -7.49999987	      4.49870080	      2.10048102	     -3.32166927	      0.41479332	      0.00723951	      4.91381466	     -1.07463253	     -7.49999987	     -0.54691319	     -1.31143129	     -1.11773802	     -2.34650507	     -7.02567919	      8.55595354	     32.41992268	     83.24310590	     -1.00501948	     -7.78684036	     11.28703994	     29.46389479	     90.09307118
      2.45000000	     -4.61524761	      1.88084509	     -1.34828696	      0.00469612	      1.30091305	      0.05105902	      4.40916217	     -0.34978128	      4.24691910	      0.73978127	      0.01291162	      7.92749811	     -3.84963793	     -7.49999987	      4.44878125	      2.10568272	     -3.40958617	      0.40869362	      0.00713305	      5.02309229	     -0.85505213	     -7.49999987	     -0.72506590	     -1.33975227	     -1.11821292	     -2.42769936	     -7.02771811	      8.49956122	     32.65853517	     81.80034668	     -1.02148921	     -7.90713435	     11.20083288	     29.76996356	     88.12602255
      2.46666670	     -4.61960727	      1.88302713	     -1.31681712	      0.00513001	      1.30058456	      0.05063177	      4.47356438	     -0.38164881	      4.28297101	      0.72713277	      0.01269086	      7.95754600	     -3.86765444	     -7.49999987	      4.48258186	      2.10386559	     -3.39910516	      0.41696482	      0.00727741	      5.04084589	     -0.86621764	     -7.49999987	     -0.74686361	     -1.33654225	     -1.12455635	     -2.45192287	     -7.06220750	      8.49489518	     32.64179098	     81.81347220	     -1.01120338	     -7.98643105	     11.18572070	     29.75242274	     88.14160013
